<?xml version="1.0" encoding="UTF-8" standalone="no"?>
<!-- Created with Inkscape (http://www.inkscape.org/) -->

<svg
   xmlns:dc="http://purl.org/dc/elements/1.1/"
   xmlns:cc="http://creativecommons.org/ns#"
   xmlns:rdf="http://www.w3.org/1999/02/22-rdf-syntax-ns#"
   xmlns:svg="http://www.w3.org/2000/svg"
   xmlns="http://www.w3.org/2000/svg"
   xmlns:sodipodi="http://sodipodi.sourceforge.net/DTD/sodipodi-0.dtd"
   xmlns:inkscape="http://www.inkscape.org/namespaces/inkscape"
   width="17.5cm"
   height="17.5cm"
   viewBox="0 0 175 175"
   version="1.1"
   id="svg8"
   sodipodi:docname="Flor.svg"
   inkscape:version="0.92.4 (5da689c313, 2019-01-14)">
  <defs
     id="defs2" />
  <sodipodi:namedview
     id="base"
     pagecolor="#ffffff"
     bordercolor="#666666"
     borderopacity="1.0"
     inkscape:pageopacity="0.0"
     inkscape:pageshadow="2"
     inkscape:zoom="0.7"
     inkscape:cx="298.48827"
     inkscape:cy="423.95631"
     inkscape:document-units="mm"
     inkscape:current-layer="layer1"
     showgrid="false"
     inkscape:snap-global="true"
     showguides="false"
     inkscape:guide-bbox="true"
     inkscape:snap-bbox="true"
     inkscape:snap-bbox-midpoints="true"
     units="cm"
     inkscape:window-width="1360"
     inkscape:window-height="705"
     inkscape:window-x="-8"
     inkscape:window-y="-8"
     inkscape:window-maximized="1">
    <sodipodi:guide
       position="59.773392,162.24628"
       orientation="1,0"
       id="guide47"
       inkscape:locked="false" />
  </sodipodi:namedview>
  <metadata
     id="metadata5">
    <rdf:RDF>
      <cc:Work
         rdf:about="">
        <dc:format>image/svg+xml</dc:format>
        <dc:type
           rdf:resource="http://purl.org/dc/dcmitype/StillImage" />
        <dc:title></dc:title>
      </cc:Work>
    </rdf:RDF>
  </metadata>
  <g
     inkscape:label="Camada 1"
     inkscape:groupmode="layer"
     id="layer1"
     transform="translate(0,-121.99998)">
    <g
       id="g970"
       transform="matrix(1.1221487,0,0,1.1221487,17.544262,-18.063612)">
      <path
         sodipodi:nodetypes="cscccc"
         inkscape:connector-curvature="0"
         id="path911"
         d="m 59.769282,270.37204 c -8.433202,-3.26765 -24.593894,-29.7377 -18.664373,-41.59675 0.04765,-0.0953 20.530709,-0.27498 21.922621,0.18899 2.624365,0.87479 15.208012,1.1284 16.347469,2.26786 0.365612,0.36561 -0.533352,5.56881 -0.755952,6.23661 3.091358,6.34475 -11.80822,32.14298 -18.849765,32.90329 z"
         style="fill:#009951;fill-opacity:1;stroke:none;stroke-width:0.26458332px;stroke-linecap:butt;stroke-linejoin:miter;stroke-opacity:1" />
      <g
         transform="rotate(-79.666195,49.529065,209.14084)"
         id="g909"
         style="fill:#7fd197;fill-opacity:1">
        <g
           transform="matrix(0.48200995,-0.57972393,0.57972393,0.48200995,-99.696836,148.39644)"
           id="g907"
           style="fill:#7fd197;fill-opacity:1;stroke:none">
          <path
             sodipodi:nodetypes="ccc"
             inkscape:connector-curvature="0"
             id="path903"
             d="M -6.39886,162.01737 C -3.637886,159.98762 3.916141,159.08188 6.9103777,159.90336 42.94487,156.68489 66.827235,191.89955 59.320105,231.2904"
             style="fill:#7fd197;fill-opacity:1;stroke:none;stroke-width:0.26458332px;stroke-linecap:butt;stroke-linejoin:miter;stroke-opacity:1" />
          <path
             sodipodi:nodetypes="cccc"
             inkscape:connector-curvature="0"
             id="path905"
             d="m -6.4113548,161.9998 c -2.653494,2.16835 -1.1547477,8.36669 -1.1049967,11.47117 1.2152287,44.57048 34.0963835,59.09835 67.2176955,59.50041 C 46.020338,207.49018 42.347729,179.66826 -6.4113548,161.9998 Z"
             style="fill:#009951;fill-opacity:1;stroke:none;stroke-width:0.26458332px;stroke-linecap:butt;stroke-linejoin:miter;stroke-opacity:1" />
        </g>
      </g>
      <path
         id="path920"
         transform="scale(0.26458333)"
         d="m 194.88086,864.22656 c -20.03418,-0.004 -39.43339,0.25545 -39.52344,0.43555 -22.36556,44.73116 38.42128,144.45489 70.34766,157.13279 l 0.21094,0.024 V 864.55273 c -8.35291,-0.23223 -19.73689,-0.32369 -31.03516,-0.32617 z"
         style="fill:#59c77f;fill-opacity:1;stroke:none;stroke-width:0.99999994px;stroke-linecap:butt;stroke-linejoin:miter;stroke-opacity:1"
         inkscape:connector-curvature="0" />
      <g
         transform="matrix(-1,0,0,1,55.266794,0)"
         id="g929"
         style="fill:#7fd197;fill-opacity:1">
        <g
           transform="matrix(0.48200995,-0.57972393,0.57972393,0.48200995,-99.696836,148.39644)"
           id="g927"
           style="fill:#7fd197;fill-opacity:1;stroke:none">
          <path
             sodipodi:nodetypes="ccc"
             inkscape:connector-curvature="0"
             id="path923"
             d="m -6.39886,162.01737 c 2.760974,-2.02975 10.315001,-2.93549 13.3092377,-2.11401 36.0344923,-3.21847 59.3165013,32.49658 51.8093713,71.88743"
             style="fill:#7fd197;fill-opacity:1;stroke:none;stroke-width:0.26458332px;stroke-linecap:butt;stroke-linejoin:miter;stroke-opacity:1" />
          <path
             sodipodi:nodetypes="cccc"
             inkscape:connector-curvature="0"
             id="path925"
             d="m -7.3929495,160.81921 c -2.6534945,2.16835 -1.1547477,8.36669 -1.1049967,11.47117 1.2152287,44.57048 34.0963832,59.09835 67.2176952,59.50041 C 37.375937,207.79963 17.407269,183.1465 -7.3929495,160.81921 Z"
             style="fill:#7fd197;fill-opacity:1;stroke:none;stroke-width:0.26458332px;stroke-linecap:butt;stroke-linejoin:miter;stroke-opacity:1" />
        </g>
      </g>
      <g
         style="fill:#006633;fill-opacity:1"
         id="g937"
         transform="translate(68.629196)">
        <g
           style="fill:#006633;fill-opacity:1;stroke:none"
           id="g935"
           transform="matrix(0.48200995,-0.57972393,0.57972393,0.48200995,-99.696836,148.39644)">
          <path
             style="fill:#006633;fill-opacity:1;stroke:none;stroke-width:0.26458332px;stroke-linecap:butt;stroke-linejoin:miter;stroke-opacity:1"
             d="m -6.39886,162.01737 c 2.760974,-2.02975 10.315001,-2.93549 13.3092377,-2.11401 36.0344923,-3.21847 59.3165013,32.49658 51.8093713,71.88743"
             id="path931"
             inkscape:connector-curvature="0"
             sodipodi:nodetypes="ccc" />
          <path
             style="fill:#006633;fill-opacity:1;stroke:none;stroke-width:0.26458332px;stroke-linecap:butt;stroke-linejoin:miter;stroke-opacity:1"
             d="m -7.3929495,160.81921 c -2.6534945,2.16835 -1.1547477,8.36669 -1.1049967,11.47117 1.2152287,44.57048 34.0963832,59.09835 67.2176952,59.50041 C 37.375937,207.79963 17.407269,183.1465 -7.3929495,160.81921 Z"
             id="path933"
             inkscape:connector-curvature="0"
             sodipodi:nodetypes="cccc" />
        </g>
      </g>
      <g
         transform="rotate(15,87.706192,265.90872)"
         id="g884"
         style="fill:#ff8597;fill-opacity:1;stroke:none">
        <path
           sodipodi:nodetypes="ccc"
           inkscape:connector-curvature="0"
           id="path880"
           d="m -6.39886,162.01737 c 2.760974,-2.02975 10.6534223,-1.14224 13.647659,-0.32076 35.437345,3.26997 59.916857,31.99619 52.409727,71.38704"
           style="fill:#ff8597;fill-opacity:1;stroke:none;stroke-width:0.26458332px;stroke-linecap:butt;stroke-linejoin:miter;stroke-opacity:1" />
        <path
           sodipodi:nodetypes="cccc"
           inkscape:connector-curvature="0"
           id="path882"
           d="m -6.39886,162.01737 c -2.653494,2.16835 -1.1547477,8.36669 -1.1049967,11.47117 C -6.288628,218.05902 26.592528,232.58689 59.71384,232.98895 37.785252,209.29338 23.5809,182.87788 -6.39886,162.01737 Z"
           style="fill:#ff8597;fill-opacity:1;stroke:none;stroke-width:0.26458332px;stroke-linecap:butt;stroke-linejoin:miter;stroke-opacity:1" />
      </g>
      <g
         style="fill:#ff3535;fill-opacity:1;stroke:none"
         id="g890"
         transform="matrix(-0.96592583,0.25881905,0.25881905,0.96592583,49.385156,-13.639413)">
        <path
           style="fill:#ff3535;fill-opacity:1;stroke:none;stroke-width:0.26458332px;stroke-linecap:butt;stroke-linejoin:miter;stroke-opacity:1"
           d="m -6.39886,162.01737 c 2.760974,-2.02975 10.6534223,-1.14224 13.647659,-0.32076 35.437345,3.26997 59.916857,31.99619 52.409727,71.38704"
           id="path886"
           inkscape:connector-curvature="0"
           sodipodi:nodetypes="ccc" />
        <path
           sodipodi:nodetypes="cccc"
           style="fill:#ff3535;fill-opacity:1;stroke:none;stroke-width:0.26458332px;stroke-linecap:butt;stroke-linejoin:miter;stroke-opacity:1"
           d="m -6.39886,162.01737 c -2.653494,2.16835 -1.1547477,8.36669 -1.1049967,11.47117 1.2152287,44.57048 34.0963847,59.09835 67.2176967,59.50041 -21.403554,-24.0758 -38.011556,-51.31789 -66.1127,-70.97158 z"
           id="path888"
           inkscape:connector-curvature="0" />
      </g>
      <g
         transform="matrix(-1,0,0,1,120.24957,0)"
         id="g878"
         style="fill:#ff8597;fill-opacity:1;stroke:none">
        <path
           sodipodi:nodetypes="ccc"
           inkscape:connector-curvature="0"
           id="path874"
           d="m -6.39886,162.01737 c 2.760974,-2.02975 10.6534223,-1.14224 13.647659,-0.32076 35.437345,3.26997 59.916857,31.99619 52.409727,71.38704"
           style="fill:#ff8597;fill-opacity:1;stroke:none;stroke-width:0.26458332px;stroke-linecap:butt;stroke-linejoin:miter;stroke-opacity:1" />
        <path
           sodipodi:nodetypes="cccc"
           inkscape:connector-curvature="0"
           id="path876"
           d="m -6.39886,162.01737 c -2.653494,2.16835 -1.1547477,8.36669 -1.1049967,11.47117 1.2152287,44.57048 34.0963847,59.09835 67.2176967,59.50041 -20.668225,-26.94361 -41.918985,-52.48914 -66.1127,-70.97158 z"
           style="fill:#ff8597;fill-opacity:1;stroke:none;stroke-width:0.26458332px;stroke-linecap:butt;stroke-linejoin:miter;stroke-opacity:1" />
      </g>
      <g
         style="fill:#ff3535;fill-opacity:1;stroke:none"
         id="g45">
        <path
           style="fill:#ff3535;fill-opacity:1;stroke:none;stroke-width:0.26458332px;stroke-linecap:butt;stroke-linejoin:miter;stroke-opacity:1"
           d="m -6.39886,162.01737 c 2.760974,-2.02975 10.6534223,-1.14224 13.647659,-0.32076 35.437345,3.26997 59.916857,31.99619 52.409727,71.38704"
           id="path41"
           inkscape:connector-curvature="0"
           sodipodi:nodetypes="ccc" />
        <path
           sodipodi:nodetypes="cccc"
           inkscape:connector-curvature="0"
           style="fill:#ff3535;fill-opacity:1;stroke:none;stroke-width:0.26458332px;stroke-linecap:butt;stroke-linejoin:miter;stroke-opacity:1"
           d="m -6.39886,162.01737 c -2.653494,2.16835 -1.1547477,8.36669 -1.1049967,11.47117 C -6.288628,218.05902 26.592528,232.58689 59.71384,232.98895 41.65902,212.55596 24.139847,192.5566 -6.39886,162.01737 Z"
           id="path28" />
      </g>
      <g
         style="stroke:none"
         id="g872">
        <g
           style="stroke:none"
           id="g37">
          <path
             inkscape:connector-curvature="0"
             id="path32"
             d="m 59.773392,134.75372 c 3.425658,0.0877 6.287177,4.69764 8.150111,7.18154 27.375268,34.5094 21.844139,64.54858 -8.227378,91.05369"
             style="fill:#ff3535;fill-opacity:1;stroke:none;stroke-width:0.26458332px;stroke-linecap:butt;stroke-linejoin:miter;stroke-opacity:1" />
          <path
             id="path25"
             d="m 59.79111,134.75372 c -3.425658,0.0877 -6.287177,4.69764 -8.150111,7.18154 -27.375268,34.5094 -21.844139,64.54858 8.227378,91.05369"
             style="fill:#ff3535;fill-opacity:1;stroke:none;stroke-width:0.26458332px;stroke-linecap:butt;stroke-linejoin:miter;stroke-opacity:1"
             inkscape:connector-curvature="0" />
        </g>
        <path
           style="opacity:0.55699978;fill:#ff8597;fill-opacity:1;stroke:none;stroke-width:0.99999994px;stroke-linecap:butt;stroke-linejoin:miter;stroke-opacity:1"
           d="m 225.91602,509.30859 c -12.91781,0.38946 -23.70937,17.76684 -30.73829,27.13868 -103.286221,130.20313 -82.62628,243.56976 30.51172,343.61914 z"
           transform="scale(0.26458333)"
           id="path53"
           inkscape:connector-curvature="0" />
      </g>
    </g>
  </g>
</svg>
